<svg id="SvgjsSvg1084" width="288" height="288" xmlns="http://www.w3.org/2000/svg" version="1.1" xmlns:xlink="http://www.w3.org/1999/xlink" xmlns:svgjs="http://svgjs.com/svgjs"><defs id="SvgjsDefs1085"></defs><g id="SvgjsG1086"><svg xmlns="http://www.w3.org/2000/svg" enable-background="new 0 0 50 50" viewBox="0 0 50 50" width="288" height="288"><path d="M10,49H40c2.1,0,3.9-1.7,3.9-3.9V4.9C43.9,2.7,42.1,1,40,1H18.9c-0.1,0-0.5,0.1-0.7,0.2l-11.7,10c-0.2,0.2-0.4,0.6-0.3,0.8
		v33.1C6.2,47.3,7.9,49,10,49z M41.9,4.9v40.2c0,1-0.8,1.9-1.9,1.9H10c-1,0-1.9-0.8-1.9-1.9V13h10.7c0.6,0,1-0.4,1-1V3H40
		C41,3,41.9,3.8,41.9,4.9z M17.9,4.2V11h-8L17.9,4.2z" fill="#e41749" class="color000 svgShape"></path><path d="M19.3 22.1L16 32.2c-.2.4.2.9.6.9h.5c.5 0 1-.4 1.2-.9l.5-1.8c0-.1.1-.1.2-.1h3.7c.1 0 .2 0 .2.1l.5 1.8c.2.5.7.9 1.2.9h.6c.5 0 .8-.4.6-.9l-3.4-10.2c-.2-.5-.6-.9-1.2-.9h-.6C20 21.2 19.5 21.5 19.3 22.1zM20.8 23.2C20.8 23.2 20.9 23.2 20.8 23.2l1.5 5.2c0 0 0 .1 0 .1 0 0 0 0-.1 0h-2.7c0 0-.1 0-.1 0 0 0 0-.1 0-.1L20.8 23.2C20.8 23.2 20.8 23.2 20.8 23.2zM31.8 27.7h-.7c-1.5 0-2.6.3-3.3.8-.7.5-1.1 1.3-1.1 2.2 0 .8.2 1.4.7 1.9.5.5 1.1.7 1.8.7 1.2 0 2.1-.4 2.7-1.3 0 0 0 0 0 0 0 0 0 0 0 0v.2c0 .3.1.5.3.7.2.2.4.3.7.3h.2c.3 0 .5-.1.6-.3.2-.2.3-.4.3-.7v-4.4c0-1.3-.3-2.1-.8-2.6-.6-.5-1.5-.8-2.9-.8-.7 0-1.5.1-2.3.3-.2 0-.4.2-.6.4-.2.2-.2.4-.2.7 0 .2.1.4.2.5.2.1.3.2.5.1.9-.2 1.7-.3 2.3-.3.6 0 1 .1 1.3.3.2.2.4.6.4 1.1v.1C31.9 27.6 31.9 27.7 31.8 27.7zM31.9 29.5c0 .7-.2 1.2-.6 1.6-.4.4-.9.6-1.5.6-.3 0-.6-.1-.8-.3-.2-.2-.3-.5-.3-.9 0-1 .8-1.4 2.3-1.4h.7c.1 0 .1.1.1.1V29.5zM14.9 36.3c0 .6.4 1 1 1h18.2c.6 0 1-.4 1-1 0-.6-.4-1-1-1H15.9C15.4 35.3 14.9 35.8 14.9 36.3z" fill="#e41749" class="color000 svgShape"></path></svg></g></svg>