<svg id="SvgjsSvg1036" width="288" height="288" xmlns="http://www.w3.org/2000/svg" version="1.1" xmlns:xlink="http://www.w3.org/1999/xlink" xmlns:svgjs="http://svgjs.com/svgjs"><defs id="SvgjsDefs1037"></defs><g id="SvgjsG1038"><svg xmlns="http://www.w3.org/2000/svg" viewBox="0 0 32 32.012" width="288" height="288"><path d="M29.08 0H18.406c-.306.016-1.002.494-1.092.584L4.584 13.312c-.78.78-.78 2.044 0 2.824l1.588 1.588-1.588 1.588c-.78.78-.78 2.044 0 2.824l9.292 9.292c.39.39.9.584 1.412.584.51 0 1.022-.194 1.412-.584l12.728-12.73c.092-.09.572-.706.572-1.09V.994C30.028.436 29.628 0 29.08 0zm-1.058 17.27c-.006.01-.01.016-.008.016L15.29 30.016l-9.292-9.288 1.588-1.588 6.29 6.29c.39.39.9.584 1.412.584.51 0 1.022-.194 1.412-.584l11.322-11.322v3.162zm0-9.27v3.27c-.006.01-.01.016-.008.016L15.29 24.016l-9.292-9.288L18.642 2.086c.038-.028.084-.058.13-.086h9.25v6zm-4-3.008a1 1 1080 1 0 2 0 1 1 1080 1 0-2 0z" fill="#e41749" class="color000 svgShape"></path></svg></g></svg>